<svg xmlns="http://www.w3.org/2000/svg" width="32" height="32" viewBox="0 0 32 32" fill="none"><path fill="currentColor" fill-rule="evenodd" d="m16.983 13.716.013-.013a.995.995 0 1 1 1.407 1.406L5.696 27.816a.994.994 0 0 1-1.407 0v.002a.995.995 0 0 1 0-1.407l12.694-12.694Zm1.42-4.254a.995.995 0 0 1-1.699-.703V4.995a.995.995 0 0 1 1.99 0v3.764a.994.994 0 0 1-.292.703Zm3.29 1.945a.994.994 0 0 1-.703-1.698l2.661-2.661a.995.995 0 0 1 1.407 1.407l-2.663 2.661a.995.995 0 0 1-.703.29Zm1.654 3.994a.995.995 0 1 1 0-1.989h3.764a.994.994 0 1 1 0 1.99h-3.764ZM20.698 18.4a.994.994 0 0 1 1.697-.703l2.663 2.663a.994.994 0 0 1-1.407 1.405l-2.661-2.661a.995.995 0 0 1-.292-.704Zm-3.38.735a.995.995 0 0 1 1.376.92v3.763a.995.995 0 0 1-1.99 0v-3.764a.994.994 0 0 1 .614-.919Zm-4.347-5.108a.994.994 0 0 1-.919 1.375H8.287a.995.995 0 0 1 0-1.989h3.765a.995.995 0 0 1 .92.614Zm1.73-3.613a.995.995 0 0 1-.291.703v-.001a.995.995 0 0 1-1.407 0l-2.661-2.662a.994.994 0 1 1 1.404-1.405L14.41 9.71c.186.187.291.44.291.704Z" clip-rule="evenodd"></path></svg>