<svg fill="none" height="24" viewBox="0 0 24 24" width="24" xmlns="http://www.w3.org/2000/svg"><path clip-rule="evenodd" d="M4 4.75A.75.75 0 0 1 4.75 4h4.5a.75.75 0 0 1 0 1.5h-1a.5.5 0 0 0-.5.5v5a.5.5 0 0 0 .5.5h7.5a.5.5 0 0 0 .5-.5V6a.5.5 0 0 0-.5-.5h-1a.75.75 0 0 1 0-1.5h4.5a.75.75 0 0 1 0 1.5h-1a.5.5 0 0 0-.5.5v12a.5.5 0 0 0 .5.5h1a.75.75 0 0 1 0 1.5h-4.5a.75.75 0 0 1 0-1.5h1a.5.5 0 0 0 .5-.5v-4.5a.5.5 0 0 0-.5-.5h-7.5a.5.5 0 0 0-.5.5V18a.5.5 0 0 0 .5.5h1a.75.75 0 0 1 0 1.5h-4.5a.75.75 0 0 1 0-1.5h1a.5.5 0 0 0 .5-.5V6a.5.5 0 0 0-.5-.5h-1A.75.75 0 0 1 4 4.75z" fill="currentColor" fill-rule="evenodd"></path></svg>