<svg xmlns="http://www.w3.org/2000/svg" xmlns:xlink="http://www.w3.org/1999/xlink" width="406" zoomAndPan="magnify" viewBox="0 0 304.5 93.749996" height="125" preserveAspectRatio="xMidYMid meet" version="1.0"><defs><g/><clipPath id="192cade876"><path d="M 0.15625 0 L 303.847656 0 L 303.847656 93.5 L 0.15625 93.5 Z M 0.15625 0 " clip-rule="nonzero"/></clipPath><clipPath id="6cc7703ef4"><path d="M 0.261719 14 L 39 14 L 39 58 L 0.261719 58 Z M 0.261719 14 " clip-rule="nonzero"/></clipPath><clipPath id="5558c72862"><path d="M 263 56 L 263.320312 56 L 263.320312 57 L 263 57 Z M 263 56 " clip-rule="nonzero"/></clipPath><clipPath id="dafade8b0c"><rect x="0" width="264" y="0" height="72"/></clipPath><clipPath id="b98e7e6e23"><path d="M 271 22 L 285 22 L 285 35.4375 L 271 35.4375 Z M 271 22 " clip-rule="nonzero"/></clipPath><clipPath id="22cbd5014b"><path d="M 17 63 L 28 63 L 28 68 L 17 68 Z M 17 63 " clip-rule="nonzero"/></clipPath><clipPath id="170b9b546a"><path d="M 3.195312 57.105469 L 26.785156 39.941406 L 43.949219 63.53125 L 20.359375 80.695312 Z M 3.195312 57.105469 " clip-rule="nonzero"/></clipPath><clipPath id="cc03cbb9ae"><path d="M 3.195312 57.105469 L 26.785156 39.941406 L 43.949219 63.53125 L 20.359375 80.695312 Z M 3.195312 57.105469 " clip-rule="nonzero"/></clipPath><clipPath id="47e0b30320"><path d="M 18 60 L 29 60 L 29 64 L 18 64 Z M 18 60 " clip-rule="nonzero"/></clipPath><clipPath id="a970544e6e"><path d="M 3.195312 57.105469 L 26.785156 39.941406 L 43.949219 63.53125 L 20.359375 80.695312 Z M 3.195312 57.105469 " clip-rule="nonzero"/></clipPath><clipPath id="6b071d4632"><path d="M 3.195312 57.105469 L 26.785156 39.941406 L 43.949219 63.53125 L 20.359375 80.695312 Z M 3.195312 57.105469 " clip-rule="nonzero"/></clipPath><clipPath id="a081f4e9ef"><path d="M 18 56 L 25 56 L 25 59 L 18 59 Z M 18 56 " clip-rule="nonzero"/></clipPath><clipPath id="29b3dd776b"><path d="M 3.195312 57.105469 L 26.785156 39.941406 L 43.949219 63.53125 L 20.359375 80.695312 Z M 3.195312 57.105469 " clip-rule="nonzero"/></clipPath><clipPath id="e3b5ff7f91"><path d="M 3.195312 57.105469 L 26.785156 39.941406 L 43.949219 63.53125 L 20.359375 80.695312 Z M 3.195312 57.105469 " clip-rule="nonzero"/></clipPath><clipPath id="2058f13372"><path d="M 14 41 L 34 41 L 34 69 L 14 69 Z M 14 41 " clip-rule="nonzero"/></clipPath><clipPath id="f79c12683d"><path d="M 3.195312 57.105469 L 26.785156 39.941406 L 43.949219 63.53125 L 20.359375 80.695312 Z M 3.195312 57.105469 " clip-rule="nonzero"/></clipPath><clipPath id="8e97c3bcb8"><path d="M 3.195312 57.105469 L 26.785156 39.941406 L 43.949219 63.53125 L 20.359375 80.695312 Z M 3.195312 57.105469 " clip-rule="nonzero"/></clipPath><clipPath id="e80638100b"><path d="M 13 67 L 31 67 L 31 75 L 13 75 Z M 13 67 " clip-rule="nonzero"/></clipPath><clipPath id="840fdd629b"><path d="M 3.195312 57.105469 L 26.785156 39.941406 L 43.949219 63.53125 L 20.359375 80.695312 Z M 3.195312 57.105469 " clip-rule="nonzero"/></clipPath><clipPath id="f8acb3cb89"><path d="M 3.195312 57.105469 L 26.785156 39.941406 L 43.949219 63.53125 L 20.359375 80.695312 Z M 3.195312 57.105469 " clip-rule="nonzero"/></clipPath></defs><g clip-path="url(#192cade876)"></g><g transform="matrix(1, 0, 0, 1, 20, 10)"><g clip-path="url(#dafade8b0c)"><g clip-path="url(#6cc7703ef4)"><g fill="#000000" fill-opacity="1"><g transform="translate(0.800835, 56.682133)"><g><path d="M 20.921875 0.453125 C 19.359375 0.453125 18.203125 0.125 17.453125 -0.53125 C 16.703125 -1.1875 16.328125 -2.226562 16.328125 -3.65625 L 16.328125 -39.1875 C 15.734375 -39.125 14.992188 -39.015625 14.109375 -38.859375 C 13.222656 -38.703125 12.296875 -38.472656 11.328125 -38.171875 C 10.359375 -37.878906 9.390625 -37.519531 8.421875 -37.09375 C 7.453125 -36.675781 6.582031 -36.191406 5.8125 -35.640625 C 5.050781 -35.097656 4.425781 -34.476562 3.9375 -33.78125 C 3.457031 -33.09375 3.21875 -32.332031 3.21875 -31.5 C 3.21875 -30.894531 3.296875 -30.414062 3.453125 -30.0625 C 3.609375 -29.707031 3.789062 -29.441406 4 -29.265625 C 4.207031 -29.085938 4.414062 -28.972656 4.625 -28.921875 C 4.84375 -28.878906 5 -28.859375 5.09375 -28.859375 C 5.5625 -28.859375 5.941406 -28.9375 6.234375 -29.09375 C 6.535156 -29.257812 6.804688 -29.429688 7.046875 -29.609375 C 7.285156 -29.785156 7.515625 -29.953125 7.734375 -30.109375 C 7.953125 -30.265625 8.195312 -30.34375 8.46875 -30.34375 C 8.695312 -30.34375 8.9375 -30.289062 9.1875 -30.1875 C 9.4375 -30.09375 9.664062 -29.929688 9.875 -29.703125 C 10.09375 -29.484375 10.273438 -29.191406 10.421875 -28.828125 C 10.578125 -28.460938 10.65625 -28.019531 10.65625 -27.5 C 10.65625 -26.75 10.507812 -26.101562 10.21875 -25.5625 C 9.9375 -25.019531 9.566406 -24.566406 9.109375 -24.203125 C 8.648438 -23.835938 8.125 -23.566406 7.53125 -23.390625 C 6.945312 -23.210938 6.367188 -23.125 5.796875 -23.125 C 4.898438 -23.125 4.09375 -23.273438 3.375 -23.578125 C 2.65625 -23.890625 2.039062 -24.316406 1.53125 -24.859375 C 1.03125 -25.398438 0.648438 -26.035156 0.390625 -26.765625 C 0.128906 -27.492188 0 -28.269531 0 -29.09375 C 0 -31.269531 0.597656 -33.15625 1.796875 -34.75 C 3.003906 -36.34375 4.648438 -37.664062 6.734375 -38.71875 C 8.828125 -39.769531 11.257812 -40.546875 14.03125 -41.046875 C 16.8125 -41.554688 19.789062 -41.8125 22.96875 -41.8125 C 24.476562 -41.8125 25.945312 -41.796875 27.375 -41.765625 C 28.8125 -41.742188 30.125 -41.703125 31.3125 -41.640625 C 32.5 -41.585938 33.519531 -41.523438 34.375 -41.453125 C 35.226562 -41.378906 35.851562 -41.296875 36.25 -41.203125 C 36.625 -41.109375 36.921875 -40.972656 37.140625 -40.796875 C 37.367188 -40.617188 37.535156 -40.414062 37.640625 -40.1875 C 37.753906 -39.96875 37.828125 -39.726562 37.859375 -39.46875 C 37.898438 -39.21875 37.921875 -38.960938 37.921875 -38.703125 C 37.921875 -38.503906 37.894531 -38.269531 37.84375 -38 C 37.789062 -37.726562 37.707031 -37.46875 37.59375 -37.21875 C 37.476562 -36.976562 37.335938 -36.773438 37.171875 -36.609375 C 37.003906 -36.441406 36.800781 -36.359375 36.5625 -36.359375 C 36.40625 -36.359375 36.25 -36.421875 36.09375 -36.546875 C 35.9375 -36.679688 35.71875 -36.84375 35.4375 -37.03125 C 35.15625 -37.21875 34.773438 -37.429688 34.296875 -37.671875 C 33.828125 -37.910156 33.203125 -38.132812 32.421875 -38.34375 C 31.648438 -38.550781 30.703125 -38.738281 29.578125 -38.90625 C 28.453125 -39.070312 27.085938 -39.179688 25.484375 -39.234375 L 25.484375 -3.65625 C 25.484375 -2.226562 25.109375 -1.1875 24.359375 -0.53125 C 23.617188 0.125 22.472656 0.453125 20.921875 0.453125 Z M 20.921875 0.453125 "/></g></g></g></g><g fill="#000000" fill-opacity="1"><g transform="translate(32.426618, 56.682133)"><g><path d="M 16.078125 -14.484375 C 16.078125 -14.953125 15.925781 -15.304688 15.625 -15.546875 C 15.332031 -15.796875 14.953125 -15.921875 14.484375 -15.921875 C 13.835938 -15.921875 13.21875 -15.769531 12.625 -15.46875 C 12.039062 -15.164062 11.523438 -14.722656 11.078125 -14.140625 C 10.628906 -13.566406 10.273438 -12.851562 10.015625 -12 C 9.753906 -11.15625 9.625 -10.175781 9.625 -9.0625 C 9.625 -7.976562 9.703125 -7.082031 9.859375 -6.375 C 10.015625 -5.664062 10.226562 -5.101562 10.5 -4.6875 C 10.769531 -4.269531 11.082031 -3.972656 11.4375 -3.796875 C 11.789062 -3.628906 12.164062 -3.546875 12.5625 -3.546875 C 13.039062 -3.546875 13.492188 -3.671875 13.921875 -3.921875 C 14.359375 -4.179688 14.734375 -4.503906 15.046875 -4.890625 C 15.359375 -5.285156 15.609375 -5.722656 15.796875 -6.203125 C 15.984375 -6.691406 16.078125 -7.175781 16.078125 -7.65625 Z M 11.640625 -26.734375 C 11.003906 -26.734375 10.414062 -26.660156 9.875 -26.515625 C 9.332031 -26.367188 8.863281 -26.179688 8.46875 -25.953125 C 8.082031 -25.734375 7.773438 -25.488281 7.546875 -25.21875 C 7.328125 -24.945312 7.21875 -24.6875 7.21875 -24.4375 C 7.21875 -24.164062 7.359375 -23.96875 7.640625 -23.84375 C 7.929688 -23.71875 8.253906 -23.578125 8.609375 -23.421875 C 8.960938 -23.265625 9.285156 -23.039062 9.578125 -22.75 C 9.867188 -22.457031 10.015625 -22.015625 10.015625 -21.421875 C 10.015625 -21.035156 9.929688 -20.675781 9.765625 -20.34375 C 9.609375 -20.019531 9.394531 -19.734375 9.125 -19.484375 C 8.851562 -19.234375 8.535156 -19.035156 8.171875 -18.890625 C 7.816406 -18.753906 7.441406 -18.6875 7.046875 -18.6875 C 6.003906 -18.6875 5.160156 -19.039062 4.515625 -19.75 C 3.867188 -20.457031 3.546875 -21.398438 3.546875 -22.578125 C 3.546875 -23.710938 3.84375 -24.679688 4.4375 -25.484375 C 5.039062 -26.296875 5.820312 -26.960938 6.78125 -27.484375 C 7.738281 -28.015625 8.820312 -28.40625 10.03125 -28.65625 C 11.25 -28.90625 12.460938 -29.03125 13.671875 -29.03125 C 15.128906 -29.03125 16.519531 -28.867188 17.84375 -28.546875 C 19.164062 -28.234375 20.332031 -27.734375 21.34375 -27.046875 C 22.363281 -26.359375 23.175781 -25.484375 23.78125 -24.421875 C 24.394531 -23.359375 24.703125 -22.070312 24.703125 -20.5625 L 24.703125 -4.75 C 24.703125 -4.582031 24.707031 -4.394531 24.71875 -4.1875 C 24.738281 -3.988281 24.785156 -3.804688 24.859375 -3.640625 C 24.941406 -3.472656 25.054688 -3.332031 25.203125 -3.21875 C 25.347656 -3.101562 25.5625 -3.046875 25.84375 -3.046875 C 26.175781 -3.046875 26.488281 -3.171875 26.78125 -3.421875 C 27.070312 -3.671875 27.328125 -3.929688 27.546875 -4.203125 L 28.25 -3.609375 C 27.96875 -3.210938 27.628906 -2.78125 27.234375 -2.3125 C 26.847656 -1.851562 26.375 -1.414062 25.8125 -1 C 25.257812 -0.59375 24.609375 -0.25 23.859375 0.03125 C 23.109375 0.3125 22.257812 0.453125 21.3125 0.453125 C 20.132812 0.453125 19.085938 0.101562 18.171875 -0.59375 C 17.265625 -1.300781 16.671875 -2.378906 16.390625 -3.828125 C 15.796875 -3.023438 15.175781 -2.351562 14.53125 -1.8125 C 13.882812 -1.269531 13.222656 -0.832031 12.546875 -0.5 C 11.878906 -0.164062 11.207031 0.0703125 10.53125 0.21875 C 9.851562 0.375 9.164062 0.453125 8.46875 0.453125 C 7.570312 0.453125 6.703125 0.3125 5.859375 0.03125 C 5.023438 -0.25 4.273438 -0.691406 3.609375 -1.296875 C 2.953125 -1.898438 2.421875 -2.6875 2.015625 -3.65625 C 1.617188 -4.632812 1.421875 -5.820312 1.421875 -7.21875 C 1.421875 -8.914062 1.753906 -10.300781 2.421875 -11.375 C 3.097656 -12.457031 3.984375 -13.367188 5.078125 -14.109375 C 6.171875 -14.847656 7.410156 -15.476562 8.796875 -16 C 10.179688 -16.519531 11.601562 -17.070312 13.0625 -17.65625 C 14.144531 -18.082031 14.929688 -18.71875 15.421875 -19.5625 C 15.921875 -20.414062 16.171875 -21.289062 16.171875 -22.1875 C 16.171875 -23.5625 15.765625 -24.660156 14.953125 -25.484375 C 14.140625 -26.316406 13.035156 -26.734375 11.640625 -26.734375 Z M 11.640625 -26.734375 "/></g></g></g><g fill="#000000" fill-opacity="1"><g transform="translate(60.948878, 56.682133)"><g><path d="M 2.296875 -17.59375 C 2.296875 -19.5 2.625 -21.160156 3.28125 -22.578125 C 3.945312 -24.003906 4.835938 -25.195312 5.953125 -26.15625 C 7.078125 -27.125 8.375 -27.84375 9.84375 -28.3125 C 11.320312 -28.789062 12.867188 -29.03125 14.484375 -29.03125 C 16.109375 -29.03125 17.644531 -28.816406 19.09375 -28.390625 C 20.550781 -27.960938 21.84375 -27.300781 22.96875 -26.40625 C 23.320312 -26.945312 23.609375 -27.515625 23.828125 -28.109375 C 24.054688 -28.703125 24.171875 -29.300781 24.171875 -29.90625 C 24.171875 -30.6875 23.957031 -31.304688 23.53125 -31.765625 C 23.113281 -32.234375 22.578125 -32.46875 21.921875 -32.46875 L 21.921875 -33.28125 C 22.335938 -33.414062 22.703125 -33.53125 23.015625 -33.625 C 23.335938 -33.726562 23.628906 -33.804688 23.890625 -33.859375 C 24.148438 -33.921875 24.410156 -33.960938 24.671875 -33.984375 C 24.929688 -34.015625 25.21875 -34.03125 25.53125 -34.03125 C 26.40625 -34.03125 27.078125 -33.757812 27.546875 -33.21875 C 28.015625 -32.6875 28.25 -31.941406 28.25 -30.984375 C 28.25 -30.429688 28.117188 -29.878906 27.859375 -29.328125 C 27.597656 -28.773438 27.269531 -28.242188 26.875 -27.734375 C 26.488281 -27.234375 26.054688 -26.757812 25.578125 -26.3125 C 25.097656 -25.863281 24.644531 -25.472656 24.21875 -25.140625 C 25 -24.242188 25.601562 -23.195312 26.03125 -22 C 26.46875 -20.8125 26.6875 -19.453125 26.6875 -17.921875 C 26.6875 -16.003906 26.351562 -14.304688 25.6875 -12.828125 C 25.03125 -11.359375 24.140625 -10.117188 23.015625 -9.109375 C 21.898438 -8.109375 20.601562 -7.347656 19.125 -6.828125 C 17.65625 -6.316406 16.109375 -6.0625 14.484375 -6.0625 C 13.535156 -6.0625 12.601562 -6.144531 11.6875 -6.3125 C 10.78125 -6.488281 9.925781 -6.734375 9.125 -7.046875 C 8.820312 -6.828125 8.5625 -6.546875 8.34375 -6.203125 C 8.132812 -5.867188 8.03125 -5.5 8.03125 -5.09375 C 8.03125 -4.40625 8.328125 -3.890625 8.921875 -3.546875 C 9.515625 -3.210938 10.304688 -2.96875 11.296875 -2.8125 C 12.285156 -2.664062 13.40625 -2.570312 14.65625 -2.53125 C 15.90625 -2.5 17.1875 -2.441406 18.5 -2.359375 C 19.8125 -2.273438 21.09375 -2.113281 22.34375 -1.875 C 23.59375 -1.644531 24.710938 -1.265625 25.703125 -0.734375 C 26.691406 -0.203125 27.484375 0.515625 28.078125 1.421875 C 28.671875 2.335938 28.96875 3.523438 28.96875 4.984375 C 28.96875 6.046875 28.742188 7 28.296875 7.84375 C 27.859375 8.695312 27.257812 9.441406 26.5 10.078125 C 25.75 10.722656 24.875 11.273438 23.875 11.734375 C 22.875 12.191406 21.816406 12.5625 20.703125 12.84375 C 19.597656 13.132812 18.472656 13.34375 17.328125 13.46875 C 16.179688 13.601562 15.085938 13.671875 14.046875 13.671875 C 12.140625 13.671875 10.425781 13.570312 8.90625 13.375 C 7.382812 13.1875 6.09375 12.882812 5.03125 12.46875 C 3.96875 12.0625 3.144531 11.53125 2.5625 10.875 C 1.988281 10.226562 1.703125 9.445312 1.703125 8.53125 C 1.703125 7.875 1.847656 7.269531 2.140625 6.71875 C 2.441406 6.175781 2.835938 5.675781 3.328125 5.21875 C 3.828125 4.757812 4.382812 4.347656 5 3.984375 C 5.613281 3.617188 6.238281 3.28125 6.875 2.96875 C 5.945312 2.570312 5.171875 1.976562 4.546875 1.1875 C 3.921875 0.394531 3.609375 -0.648438 3.609375 -1.953125 C 3.609375 -2.648438 3.726562 -3.289062 3.96875 -3.875 C 4.207031 -4.457031 4.519531 -4.992188 4.90625 -5.484375 C 5.289062 -5.984375 5.710938 -6.429688 6.171875 -6.828125 C 6.628906 -7.234375 7.070312 -7.578125 7.5 -7.859375 C 6.726562 -8.304688 6.019531 -8.847656 5.375 -9.484375 C 4.738281 -10.128906 4.191406 -10.859375 3.734375 -11.671875 C 3.273438 -12.484375 2.921875 -13.382812 2.671875 -14.375 C 2.421875 -15.363281 2.296875 -16.4375 2.296875 -17.59375 Z M 18.265625 -17.8125 C 18.265625 -18.894531 18.207031 -19.945312 18.09375 -20.96875 C 17.976562 -22 17.78125 -22.914062 17.5 -23.71875 C 17.226562 -24.519531 16.847656 -25.164062 16.359375 -25.65625 C 15.878906 -26.15625 15.253906 -26.40625 14.484375 -26.40625 C 13.722656 -26.40625 13.097656 -26.144531 12.609375 -25.625 C 12.128906 -25.113281 11.75 -24.441406 11.46875 -23.609375 C 11.1875 -22.785156 10.988281 -21.847656 10.875 -20.796875 C 10.769531 -19.742188 10.71875 -18.675781 10.71875 -17.59375 C 10.71875 -16.488281 10.769531 -15.40625 10.875 -14.34375 C 10.988281 -13.28125 11.1875 -12.328125 11.46875 -11.484375 C 11.75 -10.648438 12.128906 -9.976562 12.609375 -9.46875 C 13.097656 -8.957031 13.722656 -8.703125 14.484375 -8.703125 C 15.253906 -8.703125 15.878906 -8.972656 16.359375 -9.515625 C 16.847656 -10.054688 17.226562 -10.757812 17.5 -11.625 C 17.78125 -12.488281 17.976562 -13.460938 18.09375 -14.546875 C 18.207031 -15.628906 18.265625 -16.71875 18.265625 -17.8125 Z M 22.515625 7.21875 C 22.515625 6.625 22.28125 6.132812 21.8125 5.75 C 21.34375 5.363281 20.726562 5.050781 19.96875 4.8125 C 19.21875 4.582031 18.363281 4.40625 17.40625 4.28125 C 16.445312 4.164062 15.472656 4.078125 14.484375 4.015625 C 13.492188 3.953125 12.53125 3.890625 11.59375 3.828125 C 10.664062 3.773438 9.859375 3.703125 9.171875 3.609375 C 8.785156 3.890625 8.410156 4.191406 8.046875 4.515625 C 7.679688 4.835938 7.363281 5.179688 7.09375 5.546875 C 6.820312 5.910156 6.601562 6.289062 6.4375 6.6875 C 6.269531 7.09375 6.1875 7.503906 6.1875 7.921875 C 6.1875 8.628906 6.390625 9.21875 6.796875 9.6875 C 7.203125 10.164062 7.753906 10.546875 8.453125 10.828125 C 9.160156 11.109375 9.972656 11.300781 10.890625 11.40625 C 11.816406 11.519531 12.789062 11.578125 13.8125 11.578125 C 15.175781 11.578125 16.398438 11.457031 17.484375 11.21875 C 18.566406 10.988281 19.476562 10.671875 20.21875 10.265625 C 20.96875 9.867188 21.535156 9.410156 21.921875 8.890625 C 22.316406 8.367188 22.515625 7.8125 22.515625 7.21875 Z M 22.515625 7.21875 "/></g></g></g><g fill="#000000" fill-opacity="1"><g transform="translate(90.145522, 56.682133)"><g/></g></g><g fill="#ff5757" fill-opacity="1"><g transform="translate(90.145522, 56.682133)"><g><path d="M 23.375 -3.65625 C 23.375 -2.226562 22.992188 -1.1875 22.234375 -0.53125 C 21.484375 0.125 20.335938 0.453125 18.796875 0.453125 C 17.234375 0.453125 16.078125 0.125 15.328125 -0.53125 C 14.578125 -1.1875 14.203125 -2.226562 14.203125 -3.65625 L 14.203125 -37.109375 C 14.203125 -38.140625 13.492188 -38.65625 12.078125 -38.65625 C 11.054688 -38.65625 10.019531 -38.5 8.96875 -38.1875 C 7.914062 -37.882812 6.960938 -37.46875 6.109375 -36.9375 C 5.265625 -36.40625 4.570312 -35.769531 4.03125 -35.03125 C 3.488281 -34.289062 3.21875 -33.492188 3.21875 -32.640625 C 3.21875 -32.046875 3.296875 -31.570312 3.453125 -31.21875 C 3.609375 -30.863281 3.789062 -30.597656 4 -30.421875 C 4.207031 -30.242188 4.414062 -30.128906 4.625 -30.078125 C 4.84375 -30.035156 5 -30.015625 5.09375 -30.015625 C 5.5625 -30.015625 5.941406 -30.09375 6.234375 -30.25 C 6.535156 -30.40625 6.804688 -30.570312 7.046875 -30.75 C 7.285156 -30.925781 7.515625 -31.09375 7.734375 -31.25 C 7.953125 -31.414062 8.195312 -31.5 8.46875 -31.5 C 8.695312 -31.5 8.9375 -31.445312 9.1875 -31.34375 C 9.4375 -31.238281 9.664062 -31.070312 9.875 -30.84375 C 10.09375 -30.625 10.273438 -30.332031 10.421875 -29.96875 C 10.578125 -29.601562 10.65625 -29.160156 10.65625 -28.640625 C 10.65625 -27.890625 10.507812 -27.242188 10.21875 -26.703125 C 9.9375 -26.171875 9.566406 -25.722656 9.109375 -25.359375 C 8.648438 -24.992188 8.125 -24.722656 7.53125 -24.546875 C 6.945312 -24.367188 6.367188 -24.28125 5.796875 -24.28125 C 4.898438 -24.28125 4.09375 -24.429688 3.375 -24.734375 C 2.65625 -25.046875 2.039062 -25.472656 1.53125 -26.015625 C 1.03125 -26.554688 0.648438 -27.1875 0.390625 -27.90625 C 0.128906 -28.632812 0 -29.410156 0 -30.234375 C 0 -31.785156 0.285156 -33.148438 0.859375 -34.328125 C 1.441406 -35.515625 2.257812 -36.535156 3.3125 -37.390625 C 4.363281 -38.253906 5.625 -38.96875 7.09375 -39.53125 C 8.570312 -40.101562 10.207031 -40.554688 12 -40.890625 C 13.789062 -41.222656 15.707031 -41.457031 17.75 -41.59375 C 19.789062 -41.738281 21.910156 -41.8125 24.109375 -41.8125 C 29.441406 -41.8125 33.476562 -40.789062 36.21875 -38.75 C 38.957031 -36.707031 40.328125 -33.773438 40.328125 -29.953125 C 40.328125 -28.085938 40.078125 -26.4375 39.578125 -25 C 39.085938 -23.5625 38.425781 -22.328125 37.59375 -21.296875 C 36.769531 -20.265625 35.816406 -19.425781 34.734375 -18.78125 C 33.648438 -18.132812 32.53125 -17.671875 31.375 -17.390625 C 30.21875 -17.117188 29.054688 -17.007812 27.890625 -17.0625 C 26.734375 -17.113281 25.648438 -17.328125 24.640625 -17.703125 L 25.03125 -18.90625 C 26.425781 -18.476562 27.578125 -18.460938 28.484375 -18.859375 C 29.390625 -19.265625 30.097656 -19.976562 30.609375 -21 C 31.117188 -22.03125 31.472656 -23.328125 31.671875 -24.890625 C 31.867188 -26.453125 31.96875 -28.175781 31.96875 -30.0625 C 31.96875 -31.476562 31.816406 -32.769531 31.515625 -33.9375 C 31.222656 -35.101562 30.816406 -36.097656 30.296875 -36.921875 C 29.785156 -37.742188 29.191406 -38.378906 28.515625 -38.828125 C 27.835938 -39.285156 27.113281 -39.515625 26.34375 -39.515625 C 25.75 -39.515625 25.257812 -39.425781 24.875 -39.25 C 24.5 -39.070312 24.203125 -38.847656 23.984375 -38.578125 C 23.765625 -38.304688 23.613281 -38.015625 23.53125 -37.703125 C 23.445312 -37.398438 23.394531 -37.109375 23.375 -36.828125 Z M 23.375 -3.65625 "/></g></g></g><g fill="#ff5757" fill-opacity="1"><g transform="translate(131.036494, 56.682133)"><g/></g></g><g fill="#000000" fill-opacity="1"><g transform="translate(131.036494, 56.682133)"><g><path d="M 12.421875 -23.125 C 13.128906 -24.207031 13.882812 -25.1875 14.6875 -26.0625 C 15.019531 -26.4375 15.378906 -26.800781 15.765625 -27.15625 C 16.160156 -27.507812 16.566406 -27.828125 16.984375 -28.109375 C 17.410156 -28.390625 17.847656 -28.613281 18.296875 -28.78125 C 18.742188 -28.945312 19.191406 -29.03125 19.640625 -29.03125 C 20.585938 -29.03125 21.332031 -28.742188 21.875 -28.171875 C 22.414062 -27.609375 22.6875 -26.8125 22.6875 -25.78125 C 22.6875 -25.15625 22.632812 -24.546875 22.53125 -23.953125 C 22.425781 -23.367188 22.222656 -22.65625 21.921875 -21.8125 L 21.140625 -21.8125 C 21.035156 -22.394531 20.773438 -22.875 20.359375 -23.25 C 19.953125 -23.632812 19.359375 -23.828125 18.578125 -23.828125 C 17.992188 -23.828125 17.421875 -23.71875 16.859375 -23.5 C 16.304688 -23.289062 15.765625 -23.023438 15.234375 -22.703125 C 14.703125 -22.390625 14.195312 -22.046875 13.71875 -21.671875 C 13.238281 -21.296875 12.804688 -20.941406 12.421875 -20.609375 L 12.421875 -2.46875 C 12.421875 -2.21875 12.378906 -1.925781 12.296875 -1.59375 C 12.222656 -1.257812 12.039062 -0.941406 11.75 -0.640625 C 11.46875 -0.347656 11.039062 -0.09375 10.46875 0.125 C 9.90625 0.34375 9.128906 0.453125 8.140625 0.453125 C 7.148438 0.453125 6.367188 0.332031 5.796875 0.09375 C 5.234375 -0.132812 4.800781 -0.40625 4.5 -0.71875 C 4.207031 -1.039062 4.019531 -1.367188 3.9375 -1.703125 C 3.863281 -2.035156 3.828125 -2.304688 3.828125 -2.515625 L 3.828125 -24.109375 C 3.828125 -24.648438 3.703125 -25.117188 3.453125 -25.515625 C 3.203125 -25.921875 2.78125 -26.125 2.1875 -26.125 C 1.863281 -26.125 1.585938 -26.066406 1.359375 -25.953125 C 1.140625 -25.835938 0.898438 -25.679688 0.640625 -25.484375 L 0.0625 -26.171875 C 0.488281 -26.523438 0.96875 -26.875 1.5 -27.21875 C 2.03125 -27.570312 2.601562 -27.878906 3.21875 -28.140625 C 3.832031 -28.398438 4.492188 -28.613281 5.203125 -28.78125 C 5.910156 -28.945312 6.65625 -29.03125 7.4375 -29.03125 C 8.238281 -29.03125 8.921875 -28.921875 9.484375 -28.703125 C 10.054688 -28.492188 10.523438 -28.21875 10.890625 -27.875 C 11.253906 -27.53125 11.539062 -27.140625 11.75 -26.703125 C 11.957031 -26.273438 12.109375 -25.84375 12.203125 -25.40625 C 12.304688 -24.96875 12.367188 -24.546875 12.390625 -24.140625 C 12.410156 -23.742188 12.421875 -23.40625 12.421875 -23.125 Z M 12.421875 -23.125 "/></g></g></g><g fill="#000000" fill-opacity="1"><g transform="translate(153.770414, 56.682133)"><g><path d="M 12.421875 -2.515625 C 12.421875 -2.273438 12.378906 -1.984375 12.296875 -1.640625 C 12.210938 -1.296875 12.015625 -0.96875 11.703125 -0.65625 C 11.398438 -0.351562 10.957031 -0.09375 10.375 0.125 C 9.800781 0.34375 9.019531 0.453125 8.03125 0.453125 C 7.039062 0.453125 6.265625 0.332031 5.703125 0.09375 C 5.140625 -0.132812 4.71875 -0.40625 4.4375 -0.71875 C 4.164062 -1.039062 3.992188 -1.367188 3.921875 -1.703125 C 3.859375 -2.035156 3.828125 -2.304688 3.828125 -2.515625 L 3.828125 -24.109375 C 3.828125 -24.648438 3.703125 -25.117188 3.453125 -25.515625 C 3.203125 -25.921875 2.78125 -26.125 2.1875 -26.125 C 1.863281 -26.125 1.585938 -26.066406 1.359375 -25.953125 C 1.140625 -25.835938 0.898438 -25.679688 0.640625 -25.484375 L 0.0625 -26.171875 C 0.488281 -26.523438 0.96875 -26.875 1.5 -27.21875 C 2.03125 -27.570312 2.601562 -27.878906 3.21875 -28.140625 C 3.832031 -28.398438 4.492188 -28.613281 5.203125 -28.78125 C 5.910156 -28.945312 6.65625 -29.03125 7.4375 -29.03125 C 8.65625 -29.03125 9.597656 -28.863281 10.265625 -28.53125 C 10.929688 -28.207031 11.421875 -27.804688 11.734375 -27.328125 C 12.054688 -26.859375 12.25 -26.351562 12.3125 -25.8125 C 12.382812 -25.269531 12.421875 -24.796875 12.421875 -24.390625 Z M 2.96875 -35.40625 C 2.96875 -35.925781 3.082031 -36.425781 3.3125 -36.90625 C 3.539062 -37.382812 3.863281 -37.800781 4.28125 -38.15625 C 4.707031 -38.507812 5.195312 -38.785156 5.75 -38.984375 C 6.300781 -39.191406 6.898438 -39.296875 7.546875 -39.296875 C 8.179688 -39.296875 8.773438 -39.191406 9.328125 -38.984375 C 9.878906 -38.785156 10.359375 -38.507812 10.765625 -38.15625 C 11.179688 -37.800781 11.503906 -37.382812 11.734375 -36.90625 C 11.960938 -36.425781 12.078125 -35.925781 12.078125 -35.40625 C 12.078125 -34.863281 11.960938 -34.359375 11.734375 -33.890625 C 11.503906 -33.429688 11.179688 -33.03125 10.765625 -32.6875 C 10.359375 -32.34375 9.878906 -32.066406 9.328125 -31.859375 C 8.773438 -31.648438 8.179688 -31.546875 7.546875 -31.546875 C 6.898438 -31.546875 6.300781 -31.648438 5.75 -31.859375 C 5.195312 -32.066406 4.707031 -32.34375 4.28125 -32.6875 C 3.863281 -33.03125 3.539062 -33.429688 3.3125 -33.890625 C 3.082031 -34.359375 2.96875 -34.863281 2.96875 -35.40625 Z M 2.96875 -35.40625 "/></g></g></g><g fill="#000000" fill-opacity="1"><g transform="translate(169.737287, 56.682133)"><g><path d="M 19.9375 -13.921875 C 19.9375 -16.273438 19.828125 -18.15625 19.609375 -19.5625 C 19.398438 -20.96875 19.117188 -22.039062 18.765625 -22.78125 C 18.410156 -23.519531 18.019531 -24.003906 17.59375 -24.234375 C 17.164062 -24.460938 16.726562 -24.578125 16.28125 -24.578125 C 15.738281 -24.578125 15.253906 -24.429688 14.828125 -24.140625 C 14.410156 -23.859375 14.046875 -23.53125 13.734375 -23.15625 C 13.429688 -22.78125 13.171875 -22.40625 12.953125 -22.03125 C 12.742188 -21.664062 12.566406 -21.390625 12.421875 -21.203125 L 12.421875 -2.515625 C 12.421875 -2.273438 12.378906 -1.984375 12.296875 -1.640625 C 12.222656 -1.296875 12.039062 -0.96875 11.75 -0.65625 C 11.46875 -0.351562 11.039062 -0.09375 10.46875 0.125 C 9.90625 0.34375 9.128906 0.453125 8.140625 0.453125 C 7.148438 0.453125 6.367188 0.332031 5.796875 0.09375 C 5.234375 -0.132812 4.800781 -0.40625 4.5 -0.71875 C 4.207031 -1.039062 4.019531 -1.367188 3.9375 -1.703125 C 3.863281 -2.035156 3.828125 -2.304688 3.828125 -2.515625 L 3.828125 -24.109375 C 3.828125 -24.648438 3.703125 -25.117188 3.453125 -25.515625 C 3.203125 -25.921875 2.78125 -26.125 2.1875 -26.125 C 1.863281 -26.125 1.585938 -26.066406 1.359375 -25.953125 C 1.140625 -25.835938 0.898438 -25.679688 0.640625 -25.484375 L 0.0625 -26.171875 C 0.488281 -26.523438 0.96875 -26.875 1.5 -27.21875 C 2.03125 -27.570312 2.601562 -27.878906 3.21875 -28.140625 C 3.832031 -28.398438 4.492188 -28.613281 5.203125 -28.78125 C 5.910156 -28.945312 6.65625 -29.03125 7.4375 -29.03125 C 8.65625 -29.03125 9.597656 -28.828125 10.265625 -28.421875 C 10.929688 -28.023438 11.421875 -27.546875 11.734375 -26.984375 C 12.054688 -26.429688 12.25 -25.847656 12.3125 -25.234375 C 12.382812 -24.628906 12.421875 -24.125 12.421875 -23.71875 C 13.109375 -24.707031 13.890625 -25.59375 14.765625 -26.375 C 15.117188 -26.707031 15.515625 -27.03125 15.953125 -27.34375 C 16.390625 -27.664062 16.851562 -27.953125 17.34375 -28.203125 C 17.84375 -28.453125 18.367188 -28.648438 18.921875 -28.796875 C 19.472656 -28.953125 20.035156 -29.03125 20.609375 -29.03125 C 21.878906 -29.03125 23.003906 -28.785156 23.984375 -28.296875 C 24.960938 -27.816406 25.785156 -27.007812 26.453125 -25.875 C 27.128906 -24.738281 27.644531 -23.234375 28 -21.359375 C 28.351562 -19.484375 28.53125 -17.15625 28.53125 -14.375 C 28.53125 -11.675781 28.285156 -9.328125 27.796875 -7.328125 C 27.316406 -5.328125 26.679688 -3.628906 25.890625 -2.234375 C 25.109375 -0.835938 24.222656 0.300781 23.234375 1.1875 C 22.253906 2.070312 21.257812 2.765625 20.25 3.265625 C 19.238281 3.773438 18.269531 4.125 17.34375 4.3125 C 16.425781 4.507812 15.632812 4.617188 14.96875 4.640625 L 14.65625 3.5 C 15.21875 3.363281 15.734375 3.15625 16.203125 2.875 C 16.679688 2.601562 17.113281 2.195312 17.5 1.65625 C 17.894531 1.113281 18.238281 0.425781 18.53125 -0.40625 C 18.832031 -1.238281 19.09375 -2.273438 19.3125 -3.515625 C 19.53125 -4.765625 19.6875 -6.242188 19.78125 -7.953125 C 19.882812 -9.660156 19.9375 -11.648438 19.9375 -13.921875 Z M 19.9375 -13.921875 "/></g></g></g><g fill="#000000" fill-opacity="1"><g transform="translate(200.552512, 56.682133)"><g><path d="M 12.5625 -26.625 L 12.5625 -5.953125 C 12.5625 -4.960938 12.742188 -4.273438 13.109375 -3.890625 C 13.484375 -3.515625 14 -3.328125 14.65625 -3.328125 C 15.15625 -3.328125 15.597656 -3.46875 15.984375 -3.75 C 16.378906 -4.03125 16.71875 -4.347656 17 -4.703125 C 17.34375 -5.085938 17.632812 -5.539062 17.875 -6.0625 L 18.734375 -5.671875 C 18.453125 -5.078125 18.117188 -4.425781 17.734375 -3.71875 C 17.359375 -3.007812 16.851562 -2.351562 16.21875 -1.75 C 15.582031 -1.144531 14.785156 -0.632812 13.828125 -0.21875 C 12.867188 0.1875 11.660156 0.390625 10.203125 0.390625 C 9.390625 0.390625 8.601562 0.269531 7.84375 0.03125 C 7.09375 -0.207031 6.421875 -0.585938 5.828125 -1.109375 C 5.242188 -1.640625 4.773438 -2.296875 4.421875 -3.078125 C 4.066406 -3.859375 3.890625 -4.800781 3.890625 -5.90625 L 3.890625 -26.625 L 0.75 -26.625 L 0.75 -28.640625 C 1.269531 -28.640625 1.992188 -28.773438 2.921875 -29.046875 C 3.859375 -29.316406 4.816406 -29.769531 5.796875 -30.40625 C 6.773438 -31.039062 7.6875 -31.890625 8.53125 -32.953125 C 9.375 -34.015625 9.972656 -35.328125 10.328125 -36.890625 L 12.5625 -36.890625 L 12.5625 -28.640625 L 17.125 -28.640625 C 18.613281 -28.640625 19.359375 -28.890625 19.359375 -29.390625 C 19.359375 -29.578125 19.265625 -29.703125 19.078125 -29.765625 C 18.890625 -29.835938 18.675781 -29.921875 18.4375 -30.015625 C 18.207031 -30.117188 18 -30.265625 17.8125 -30.453125 C 17.625 -30.640625 17.53125 -30.945312 17.53125 -31.375 C 17.53125 -31.90625 17.691406 -32.316406 18.015625 -32.609375 C 18.347656 -32.910156 18.773438 -33.0625 19.296875 -33.0625 C 19.628906 -33.0625 19.921875 -32.988281 20.171875 -32.84375 C 20.429688 -32.707031 20.644531 -32.519531 20.8125 -32.28125 C 20.976562 -32.050781 21.101562 -31.785156 21.1875 -31.484375 C 21.269531 -31.191406 21.3125 -30.894531 21.3125 -30.59375 C 21.3125 -29.382812 20.960938 -28.421875 20.265625 -27.703125 C 19.566406 -26.984375 18.441406 -26.625 16.890625 -26.625 Z M 12.5625 -26.625 "/></g></g></g><g fill="#000000" fill-opacity="1"><g transform="translate(219.846982, 56.682133)"><g><path d="M 12.140625 -2.46875 C 12.140625 -2.21875 12.097656 -1.925781 12.015625 -1.59375 C 11.929688 -1.257812 11.734375 -0.941406 11.421875 -0.640625 C 11.117188 -0.347656 10.671875 -0.09375 10.078125 0.125 C 9.492188 0.34375 8.707031 0.453125 7.71875 0.453125 C 6.726562 0.453125 5.953125 0.332031 5.390625 0.09375 C 4.835938 -0.132812 4.425781 -0.40625 4.15625 -0.71875 C 3.882812 -1.039062 3.710938 -1.367188 3.640625 -1.703125 C 3.578125 -2.035156 3.546875 -2.304688 3.546875 -2.515625 L 3.546875 -38.59375 C 3.546875 -39.132812 3.421875 -39.601562 3.171875 -40 C 2.921875 -40.40625 2.5 -40.609375 1.90625 -40.609375 C 1.582031 -40.609375 1.304688 -40.554688 1.078125 -40.453125 C 0.847656 -40.347656 0.597656 -40.195312 0.328125 -40 L -0.21875 -40.671875 C 0.207031 -41.023438 0.679688 -41.375 1.203125 -41.71875 C 1.722656 -42.0625 2.296875 -42.363281 2.921875 -42.625 C 3.546875 -42.882812 4.210938 -43.097656 4.921875 -43.265625 C 5.628906 -43.429688 6.375 -43.515625 7.15625 -43.515625 C 8.375 -43.515625 9.316406 -43.351562 9.984375 -43.03125 C 10.648438 -42.707031 11.140625 -42.304688 11.453125 -41.828125 C 11.773438 -41.347656 11.96875 -40.84375 12.03125 -40.3125 C 12.101562 -39.78125 12.140625 -39.3125 12.140625 -38.90625 Z M 12.140625 -2.46875 "/></g></g></g><g fill="#000000" fill-opacity="1"><g transform="translate(235.545791, 56.682133)"><g/></g></g><g fill="#38b6ff" fill-opacity="1"><g transform="translate(235.545791, 56.682133)"><g><path d="M 25.78125 -24.640625 C 25.78125 -21.222656 25.445312 -17.925781 24.78125 -14.75 C 24.125 -11.570312 23.210938 -8.585938 22.046875 -5.796875 C 20.890625 -3.015625 19.507812 -0.472656 17.90625 1.828125 C 16.300781 4.128906 14.554688 6.097656 12.671875 7.734375 C 10.785156 9.378906 8.789062 10.660156 6.6875 11.578125 C 4.59375 12.492188 2.472656 12.953125 0.328125 12.953125 C -1.304688 12.953125 -2.570312 12.675781 -3.46875 12.125 C -4.363281 11.570312 -4.8125 10.832031 -4.8125 9.90625 C -4.8125 9.550781 -4.753906 9.203125 -4.640625 8.859375 C -4.523438 8.523438 -4.375 8.226562 -4.1875 7.96875 C -4.007812 7.707031 -3.785156 7.5 -3.515625 7.34375 C -3.253906 7.1875 -2.976562 7.109375 -2.6875 7.109375 C -2.332031 7.109375 -2.035156 7.285156 -1.796875 7.640625 C -1.566406 7.992188 -1.320312 8.378906 -1.0625 8.796875 C -0.800781 9.210938 -0.484375 9.597656 -0.109375 9.953125 C 0.265625 10.304688 0.773438 10.484375 1.421875 10.484375 C 2.265625 10.484375 3.140625 10.335938 4.046875 10.046875 C 4.960938 9.765625 5.878906 9.351562 6.796875 8.8125 C 7.722656 8.269531 8.648438 7.609375 9.578125 6.828125 C 10.503906 6.054688 11.414062 5.195312 12.3125 4.25 C 11.78125 2.363281 11.175781 0.304688 10.5 -1.921875 C 9.820312 -4.148438 9.101562 -6.390625 8.34375 -8.640625 C 7.59375 -10.898438 6.820312 -13.078125 6.03125 -15.171875 C 5.238281 -17.265625 4.460938 -19.125 3.703125 -20.75 C 2.953125 -22.375 2.222656 -23.675781 1.515625 -24.65625 C 0.816406 -25.632812 0.203125 -26.125 -0.328125 -26.125 C -0.679688 -26.125 -0.957031 -26.066406 -1.15625 -25.953125 C -1.351562 -25.835938 -1.582031 -25.679688 -1.84375 -25.484375 L -2.40625 -26.171875 C -2.03125 -26.492188 -1.632812 -26.820312 -1.21875 -27.15625 C -0.8125 -27.488281 -0.332031 -27.796875 0.21875 -28.078125 C 0.78125 -28.359375 1.429688 -28.585938 2.171875 -28.765625 C 2.921875 -28.941406 3.816406 -29.03125 4.859375 -29.03125 C 6.003906 -29.03125 7.066406 -28.773438 8.046875 -28.265625 C 9.023438 -27.753906 9.914062 -26.804688 10.71875 -25.421875 C 11.289062 -24.398438 11.890625 -23.171875 12.515625 -21.734375 C 13.140625 -20.296875 13.769531 -18.691406 14.40625 -16.921875 C 15.039062 -15.148438 15.675781 -13.234375 16.3125 -11.171875 C 16.957031 -9.109375 17.609375 -6.953125 18.265625 -4.703125 C 19.421875 -7.117188 20.351562 -9.679688 21.0625 -12.390625 C 21.769531 -15.109375 22.125 -17.90625 22.125 -20.78125 C 22.125 -21.800781 22.054688 -22.675781 21.921875 -23.40625 C 21.796875 -24.132812 21.648438 -24.753906 21.484375 -25.265625 C 21.316406 -25.785156 21.164062 -26.222656 21.03125 -26.578125 C 20.90625 -26.941406 20.84375 -27.265625 20.84375 -27.546875 C 20.84375 -27.828125 20.953125 -28.066406 21.171875 -28.265625 C 21.398438 -28.460938 21.671875 -28.613281 21.984375 -28.71875 C 22.296875 -28.832031 22.613281 -28.910156 22.9375 -28.953125 C 23.269531 -29.003906 23.550781 -29.03125 23.78125 -29.03125 C 24.28125 -29.03125 24.664062 -28.925781 24.9375 -28.71875 C 25.207031 -28.519531 25.40625 -28.226562 25.53125 -27.84375 C 25.664062 -27.457031 25.738281 -26.992188 25.75 -26.453125 C 25.769531 -25.910156 25.78125 -25.304688 25.78125 -24.640625 Z M 25.78125 -24.640625 "/></g></g></g><g clip-path="url(#5558c72862)"><g fill="#38b6ff" fill-opacity="1"><g transform="translate(263.045487, 56.682133)"><g/></g></g></g></g></g><g clip-path="url(#b98e7e6e23)"><path fill="#38b6ff" d="M 277.292969 32.289062 C 276.625 31.816406 275.992188 31.253906 275.449219 30.648438 C 274.582031 29.6875 270.375 24.132812 272.367188 23.113281 C 272.933594 22.824219 273.5625 23.019531 274.132812 23.207031 C 277.328125 24.253906 277.347656 29.457031 277.292969 32.289062 Z M 278.972656 35.660156 C 278.074219 34.90625 278.136719 32.898438 278.210938 31.878906 C 278.363281 29.660156 279.023438 26.929688 280.476562 25.210938 C 283.835938 21.226562 285.449219 25.351562 283.882812 28.835938 C 283.414062 29.882812 282.683594 30.792969 282.015625 31.703125 C 281.464844 32.453125 280.851562 33.148438 280.3125 33.902344 C 279.914062 34.457031 279.566406 35.140625 279.082031 35.621094 " fill-opacity="1" fill-rule="evenodd"/></g><g clip-path="url(#22cbd5014b)"><g clip-path="url(#170b9b546a)"><g clip-path="url(#cc03cbb9ae)"><path fill="#011839" d="M 27.054688 65.121094 L 18.636719 63.792969 C 18.117188 63.710938 17.628906 64.066406 17.546875 64.589844 C 17.464844 65.109375 17.820312 65.597656 18.339844 65.679688 L 26.753906 67.007812 C 27.023438 67.050781 27.265625 66.976562 27.46875 66.832031 C 27.671875 66.683594 27.808594 66.464844 27.855469 66.207031 C 27.929688 65.691406 27.574219 65.203125 27.054688 65.121094 Z M 27.054688 65.121094 " fill-opacity="1" fill-rule="nonzero"/></g></g></g><g clip-path="url(#47e0b30320)"><g clip-path="url(#a970544e6e)"><g clip-path="url(#6b071d4632)"><path fill="#011839" d="M 18.128906 60.847656 C 18.046875 61.371094 18.402344 61.859375 18.925781 61.941406 L 27.339844 63.265625 C 27.605469 63.308594 27.851562 63.238281 28.050781 63.089844 C 28.253906 62.945312 28.390625 62.726562 28.4375 62.464844 C 28.519531 61.945312 28.164062 61.457031 27.644531 61.375 L 19.230469 60.046875 C 18.699219 59.972656 18.210938 60.328125 18.128906 60.847656 Z M 18.128906 60.847656 " fill-opacity="1" fill-rule="nonzero"/></g></g></g><g clip-path="url(#a081f4e9ef)"><g clip-path="url(#29b3dd776b)"><g clip-path="url(#e3b5ff7f91)"><path fill="#011839" d="M 23.964844 58.628906 C 24.164062 58.480469 24.300781 58.261719 24.351562 58.003906 C 24.433594 57.480469 24.078125 56.996094 23.554688 56.910156 L 19.816406 56.316406 C 19.296875 56.234375 18.808594 56.589844 18.726562 57.109375 C 18.644531 57.632812 19 58.121094 19.519531 58.203125 L 23.257812 58.796875 C 23.511719 58.839844 23.769531 58.769531 23.964844 58.628906 Z M 23.964844 58.628906 " fill-opacity="1" fill-rule="nonzero"/></g></g></g><g clip-path="url(#2058f13372)"><g clip-path="url(#f79c12683d)"><g clip-path="url(#8e97c3bcb8)"><path fill="#011839" d="M 26.375 42.023438 C 24.371094 41.707031 22.347656 43.175781 22.03125 45.183594 L 21.542969 48.273438 L 17.613281 49.949219 C 16.863281 50.269531 16.328125 50.96875 16.203125 51.769531 L 14.101562 65.140625 C 14.019531 65.664062 14.375 66.152344 14.894531 66.234375 C 15.417969 66.316406 15.914062 65.957031 15.988281 65.4375 L 18.089844 52.066406 C 18.113281 51.90625 18.222656 51.765625 18.363281 51.714844 L 21.191406 50.507812 L 21.148438 50.789062 C 20.988281 51.792969 21.230469 52.789062 21.828125 53.609375 C 22.425781 54.429688 23.300781 54.964844 24.304688 55.125 L 25.238281 55.273438 C 25.507812 55.3125 25.75 55.242188 25.953125 55.097656 C 26.15625 54.949219 26.292969 54.730469 26.339844 54.472656 C 26.421875 53.949219 26.066406 53.460938 25.546875 53.378906 L 24.609375 53.230469 C 24.113281 53.152344 23.675781 52.894531 23.375 52.484375 C 23.078125 52.074219 22.964844 51.574219 23.042969 51.078125 L 23.273438 49.609375 L 25.046875 48.851562 C 25.207031 48.78125 25.398438 48.820312 25.527344 48.929688 L 31.007812 53.691406 C 31.128906 53.792969 31.183594 53.96875 31.160156 54.113281 L 29.058594 67.488281 C 28.976562 68.007812 29.332031 68.496094 29.851562 68.578125 C 30.113281 68.613281 30.363281 68.550781 30.566406 68.402344 C 30.765625 68.257812 30.90625 68.039062 30.953125 67.777344 L 33.054688 54.40625 C 33.179688 53.605469 32.878906 52.78125 32.269531 52.238281 L 29.050781 49.441406 L 29.539062 46.351562 C 29.863281 44.292969 28.449219 42.347656 26.375 42.023438 Z M 27.652344 46.070312 L 27.34375 47.972656 L 26.789062 47.488281 C 26.101562 46.902344 25.152344 46.75 24.304688 47.105469 L 23.628906 47.394531 L 23.929688 45.480469 C 24.085938 44.492188 25.09375 43.761719 26.085938 43.914062 C 27.101562 44.078125 27.804688 45.042969 27.652344 46.070312 Z M 27.652344 46.070312 " fill-opacity="1" fill-rule="nonzero"/></g></g></g><g clip-path="url(#e80638100b)"><g clip-path="url(#840fdd629b)"><g clip-path="url(#f8acb3cb89)"><path fill="#38b6ff" d="M 13.757812 67.453125 L 13.398438 69.714844 C 13.289062 70.46875 13.464844 71.21875 13.914062 71.835938 C 14.359375 72.449219 15.023438 72.855469 15.773438 72.972656 L 26.984375 74.742188 C 27.730469 74.859375 28.488281 74.675781 29.097656 74.230469 C 29.710938 73.785156 30.117188 73.125 30.234375 72.375 L 30.589844 70.113281 Z M 13.757812 67.453125 " fill-opacity="1" fill-rule="nonzero"/></g></g></g></svg>